<?xml version="1.0" standalone="no"?>
<!DOCTYPE svg PUBLIC "-//W3C//DTD SVG 20010904//EN"
 "http://www.w3.org/TR/2001/REC-SVG-20010904/DTD/svg10.dtd">
<svg version="1.0" xmlns="http://www.w3.org/2000/svg"
 width="180.000000pt" height="180.000000pt" viewBox="0 0 180.000000 180.000000"
 preserveAspectRatio="xMidYMid meet">

<g transform="translate(0.000000,180.000000) scale(0.100000,-0.100000)"
fill="#000000" stroke="none">
<path d="M0 900 l0 -900 900 0 900 0 0 900 0 900 -900 0 -900 0 0 -900z m1195
414 c48 -23 102 -81 121 -130 19 -49 15 -93 -13 -151 -26 -55 -222 -254 -284
-287 -59 -33 -128 -37 -177 -12 -41 21 -102 85 -102 106 0 15 67 89 72 79 2
-2 11 -17 20 -34 22 -40 77 -68 114 -59 30 8 198 164 245 228 39 53 38 89 -5
132 -54 54 -104 44 -185 -39 -40 -42 -45 -44 -73 -35 -16 6 -48 7 -71 4 l-42
-7 85 87 c122 124 209 159 295 118z m-261 -235 c39 -11 126 -89 126 -113 0 -7
-17 -29 -39 -50 l-38 -37 -13 32 c-16 37 -63 69 -105 69 -24 0 -51 -22 -157
-128 -122 -121 -128 -130 -128 -168 0 -31 6 -46 28 -66 57 -55 102 -46 182 36
39 41 48 46 75 40 16 -4 48 -6 70 -5 l40 1 -80 -81 c-118 -119 -184 -151 -267
-128 -47 12 -125 81 -144 126 -19 45 -17 111 5 158 26 56 275 298 321 312 47
15 77 15 124 2z"/>
</g>
</svg>
